<?xml version="1.0" encoding="UTF-8"?>
<svg version="1.1" xmlns="http://www.w3.org/2000/svg" width="257" height="257">
<path d="M0 0 C12.2712096 8.31047336 19.89182602 18.67590977 23.62109375 33.03125 C26.17855321 47.01780796 24.27632249 60.65484395 17.2109375 73.08203125 C14.33807947 77.21398138 10.83440219 80.65197565 7.19140625 84.109375 C4.97710518 86.71885735 4.97710518 86.71885735 5.4296875 90.1328125 C5.72101563 91.34710938 6.01234375 92.56140625 6.3125 93.8125 C6.56128906 95.09382813 6.81007812 96.37515625 7.06640625 97.6953125 C7.19901855 98.37658203 7.33163086 99.05785156 7.46826172 99.75976562 C13.29907919 130.97878836 6.99391097 162.98562883 -10.99609375 189.2734375 C-29.91350421 215.56616389 -57.79092859 232.42736457 -89.6875 237.8125 C-105.07991211 239.94630679 -120.7967925 239.23619229 -135.6875 234.75 C-139.86783681 233.62767898 -139.86783681 233.62767898 -143.77734375 234.93359375 C-145.0501555 236.14182309 -146.27795065 237.39867555 -147.46484375 238.69140625 C-150.23261704 241.33270836 -153.28671107 242.9558075 -156.6875 244.625 C-157.821875 245.18832031 -158.95625 245.75164062 -160.125 246.33203125 C-172.42560015 251.44379381 -186.17040362 251.55602274 -198.69921875 247.0625 C-212.94999861 241.10138947 -223.22083404 232.08376282 -229.6875 217.8125 C-232.25344138 210.98439807 -233.21048488 204.71111905 -233.125 197.4375 C-233.11670166 196.5192041 -233.10840332 195.6009082 -233.09985352 194.65478516 C-232.77089985 181.4006449 -227.79537518 171.16248088 -219.36328125 161.015625 C-217.04241774 156.57947564 -217.97143062 154.06392811 -219.375 149.4375 C-227.55314282 120.19603755 -221.47129135 88.79828392 -206.75390625 62.60839844 C-203.81948105 57.66663293 -200.37185321 53.21092166 -196.6875 48.8125 C-195.43839844 47.31783203 -195.43839844 47.31783203 -194.1640625 45.79296875 C-175.37441421 24.01596181 -148.30504285 9.9365572 -119.6875 6.8125 C-106.20020633 6.10166647 -93.07983487 6.24960705 -79.91918945 9.47729492 C-74.28643887 10.93206037 -74.28643887 10.93206037 -68.6875 9.8125 C-65.86878064 7.69018964 -65.86878064 7.69018964 -63.0625 5.0625 C-45.46280952 -10.36016326 -19.89994722 -11.77025764 0 0 Z " fill="#475569" transform="translate(232.6875,7.1875)"/>
<path d="M0 0 C2.18017886 3.69682502 1.95455859 7.26087509 0.96844482 11.41204834 C0.30082989 13.57553008 -0.43219958 15.70427458 -1.1953125 17.8359375 C-1.46963104 18.62916412 -1.74394958 19.42239075 -2.02658081 20.23965454 C-2.90349624 22.76757319 -3.79520444 25.28997466 -4.6875 27.8125 C-5.26400208 29.46710636 -5.83953089 31.12205216 -6.4140625 32.77734375 C-7.83963884 36.87618284 -9.27974992 40.96973119 -10.72506714 45.06164551 C-11.5373277 47.36608445 -12.34389854 49.67243264 -13.14868164 51.97949219 C-49.3559742 155.58317249 -49.3559742 155.58317249 -74.32641602 169.41455078 C-78.90623045 171.48347817 -81.72549487 171.9649753 -86.5625 170.4375 C-92.27200091 166.14278846 -97.28854187 160.85607879 -102.32373047 155.80566406 C-103.05320389 155.07794296 -103.78267731 154.35022186 -104.53425598 153.60044861 C-106.9185695 151.22049792 -109.29925221 148.83695422 -111.6796875 146.453125 C-113.34483485 144.78865192 -115.01013058 143.12432726 -116.67556763 141.46014404 C-120.15187526 137.98530551 -123.62638054 134.50867754 -127.09960938 131.03076172 C-131.5550823 126.56956971 -136.01505955 122.11291199 -140.47637749 117.65756607 C-143.90961248 114.22793902 -147.34046912 110.79594077 -150.77060318 107.36321259 C-152.4149444 105.7182039 -154.06002986 104.0739388 -155.70586777 102.43042755 C-157.99888271 100.13994532 -160.2886794 97.846294 -162.57763672 95.55175781 C-163.59995644 94.53247444 -163.59995644 94.53247444 -164.64292908 93.49259949 C-165.26517868 92.86753006 -165.88742828 92.24246063 -166.52853394 91.59844971 C-167.33979642 90.78662169 -167.33979642 90.78662169 -168.16744804 89.9583931 C-171.64040396 86.172158 -172.00597732 83.61838018 -171.87109375 78.70703125 C-170.8799517 71.41774606 -163.3119058 65.54203112 -157.78125 61.30859375 C-122.70659427 36.348288 -80.19144581 21.62618564 -39.74316406 7.86669922 C-35.88925688 6.55402771 -32.04955906 5.20436475 -28.2109375 3.84765625 C-26.07843614 3.10587574 -23.9456477 2.36491975 -21.8125 1.625 C-20.88550293 1.29322754 -19.95850586 0.96145508 -19.00341797 0.61962891 C-12.85570858 -1.47249944 -5.88627532 -3.58919227 0 0 Z " fill="#FDFDFE" transform="translate(212.5625,44.5625)"/>
<path d="M0 0 C3.42368535 0.46700828 4.5249065 1.61690961 6.95574951 4.04447937 C7.772995 4.84919174 8.59024048 5.65390411 9.43225098 6.48300171 C10.30013245 7.36414139 11.16801392 8.24528107 12.06219482 9.15312195 C12.96278625 10.05130142 13.86337769 10.9494809 14.79125977 11.87487793 C16.69376 13.77835824 18.59054279 15.68598935 20.47967529 17.60258484 C22.89782484 20.05479284 25.33546974 22.48645091 27.78004074 24.91228771 C30.11338489 27.23250078 32.43094138 29.56834092 34.74969482 31.90312195 C35.62567322 32.77414047 36.50165161 33.645159 37.4041748 34.54257202 C38.20881165 35.3630452 39.01344849 36.18351837 39.84246826 37.02885437 C40.55352722 37.74611191 41.26458618 38.46336945 41.99719238 39.20236206 C43.8387547 41.62074224 44.28807904 43.37026088 44.64031982 46.3601532 C40.60582484 49.82840327 36.38335603 52.33404628 31.70281982 54.7976532 C30.95862793 55.19017273 30.21443604 55.58269226 29.44769287 55.98710632 C17.98700036 61.89631606 4.55847372 67.80566562 -8.57452393 64.86405945 C-13.17221833 63.34861828 -15.74657349 61.58132554 -18.35968018 57.3601532 C-22.28684078 49.13318171 -21.32734695 39.46768787 -18.61505127 30.99491882 C-8.08433226 1.23389523 -8.08433226 1.23389523 0 0 Z " fill="#FCFCFC" transform="translate(44.35968017578125,166.6398468017578)"/>
<path d="M0 0 C6.54471639 3.94060818 11.15502332 9.75820796 13.5 17.1484375 C15.17951407 26.45036159 13.00853545 33.22797918 7.85546875 41.1171875 C3.12471945 46.74903191 -3.56922481 50.46923948 -10.84765625 51.5 C-19.00372464 51.84173471 -24.59947383 49.41104818 -31.33203125 45.0546875 C-36.38969197 40.37953893 -39.62115557 34.42076447 -40.6953125 27.640625 C-41.03722133 18.67284475 -39.35852772 11.77197858 -33.27734375 5.0546875 C-23.92159352 -3.68219987 -11.59943749 -6.12720742 0 0 Z " fill="#49566A" transform="translate(140.14453125,105.8828125)"/>
</svg>
