<?xml version="1.0" encoding="UTF-8"?>
<svg version="1.1" xmlns="http://www.w3.org/2000/svg" width="257" height="258">
<path d="M0 0 C12.27098528 8.31032144 19.88826045 18.67389688 23.62109375 33.02734375 C26.39547139 48.21588577 23.62956085 62.72083015 15.3125 75.8125 C12.7061681 78.72251954 10.03924941 81.47079204 7.19140625 84.14453125 C4.97483671 86.72117223 4.97483671 86.72117223 5.4296875 90.12890625 C5.72101563 91.34449219 6.01234375 92.56007813 6.3125 93.8125 C6.56128906 95.09382813 6.81007812 96.37515625 7.06640625 97.6953125 C7.19901855 98.37658203 7.33163086 99.05785156 7.46826172 99.75976562 C13.29907919 130.97878836 6.99391097 162.98562883 -10.99609375 189.2734375 C-29.91350421 215.56616389 -57.79092859 232.42736457 -89.6875 237.8125 C-105.07991211 239.94630679 -120.7967925 239.23619229 -135.6875 234.75 C-139.86783681 233.62767898 -139.86783681 233.62767898 -143.77734375 234.93359375 C-145.05081711 236.14245112 -146.2798739 237.39925914 -147.46875 238.69140625 C-156.80490531 247.61663923 -170.10131223 250.20557658 -182.53149414 250.18383789 C-195.80930395 249.80996803 -208.31205707 244.24674041 -217.9375 235.1875 C-228.10529621 224.42159813 -233.29838918 212.19059822 -233.125 197.4375 C-233.11670166 196.5192041 -233.10840332 195.6009082 -233.09985352 194.65478516 C-232.77089985 181.4006449 -227.79537518 171.16248088 -219.36328125 161.015625 C-217.04241774 156.57947564 -217.97143062 154.06392811 -219.375 149.4375 C-227.07677837 121.89930853 -222.3879024 91.48568051 -208.80859375 66.484375 C-193.39101517 39.33123984 -168.68535132 18.98809088 -138.4296875 10.58984375 C-119.28390051 5.56499995 -99.22773114 4.74181701 -79.91918945 9.47729492 C-74.28643887 10.93206037 -74.28643887 10.93206037 -68.6875 9.8125 C-65.86878064 7.69018964 -65.86878064 7.69018964 -63.0625 5.0625 C-45.46280952 -10.36016326 -19.89994722 -11.77025764 0 0 Z " fill="#4F46E5" transform="translate(232.6875,8.1875)"/>
<path d="M0 0 C2.57983061 4.80786614 0.8042603 10.04278692 -0.61230469 15.05786133 C-1.93521875 19.31454605 -3.37075026 23.53239589 -4.8125 27.75 C-5.35035038 29.34000361 -5.888192 30.93001018 -6.42602539 32.52001953 C-48.04727957 154.94865403 -48.04727957 154.94865403 -74.38891602 169.53955078 C-78.96873045 171.60847817 -81.78799487 172.0899753 -86.625 170.5625 C-92.33450091 166.26778846 -97.35104187 160.98107879 -102.38623047 155.93066406 C-103.11570389 155.20294296 -103.84517731 154.47522186 -104.59675598 153.72544861 C-106.9810695 151.34549792 -109.36175221 148.96195422 -111.7421875 146.578125 C-113.40733485 144.91365192 -115.07263058 143.24932726 -116.73806763 141.58514404 C-120.21437526 138.11030551 -123.68888054 134.63367754 -127.16210938 131.15576172 C-131.6175823 126.69456971 -136.07755955 122.23791199 -140.53887749 117.78256607 C-143.97211248 114.35293902 -147.40296912 110.92094077 -150.83310318 107.48821259 C-152.4774444 105.8432039 -154.12252986 104.1989388 -155.76836777 102.55542755 C-158.06138271 100.26494532 -160.3511794 97.971294 -162.64013672 95.67675781 C-163.66245644 94.65747444 -163.66245644 94.65747444 -164.70542908 93.61759949 C-165.32767868 92.99253006 -165.94992828 92.36746063 -166.59103394 91.72344971 C-167.40229642 90.91162169 -167.40229642 90.91162169 -168.22994804 90.0833931 C-171.70290396 86.297158 -172.06847732 83.74338018 -171.93359375 78.83203125 C-170.9424517 71.54274606 -163.3744058 65.66703112 -157.84375 61.43359375 C-122.63091484 36.37495487 -80.06573261 21.78578727 -39.49511719 7.89355469 C-35.81403677 6.63179132 -32.1451559 5.33670522 -28.4765625 4.0390625 C-26.33892567 3.29576973 -24.20092978 2.55350839 -22.0625 1.8125 C-21.1238208 1.47686035 -20.1851416 1.1412207 -19.21801758 0.79541016 C-12.95607848 -1.3350173 -6.11528468 -3.34884637 0 0 Z " fill="#FDFDFE" transform="translate(212.625,45.4375)"/>
<path d="M0 0 C3.43132648 0.45586967 4.52544558 1.60427029 6.96014404 4.03569031 C7.77738953 4.84040268 8.59463501 5.64511505 9.43664551 6.47421265 C10.30452698 7.35535233 11.17240845 8.236492 12.06658936 9.14433289 C12.96718079 10.04251236 13.86777222 10.94069183 14.7956543 11.86608887 C16.69815454 13.76956918 18.59493732 15.67720029 20.48406982 17.59379578 C22.90221938 20.04600377 25.33986428 22.47766184 27.78443527 24.90349865 C30.11777943 27.22371171 32.43533591 29.55955185 34.75408936 31.89433289 C35.63006775 32.76535141 36.50604614 33.63636993 37.40856934 34.53378296 C38.21320618 35.35425613 39.01784302 36.17472931 39.84686279 37.02006531 C40.55792175 37.73732285 41.26898071 38.45458038 42.00158691 39.193573 C43.84314923 41.61195318 44.29247357 43.36147182 44.64471436 46.35136414 C40.61021937 49.81961421 36.38775057 52.32525722 31.70721436 54.78886414 C30.96302246 55.18138367 30.21883057 55.5739032 29.4520874 55.97831726 C18.02642404 61.86946573 3.41411288 68.57849554 -9.63653564 64.66777039 C-14.38838129 62.53121292 -16.86541698 60.03231722 -19.35528564 55.35136414 C-23.36095474 43.33435684 -19.35021815 30.335939 -14.00372314 19.49198914 C-4.40781522 0.65756278 -4.40781522 0.65756278 0 0 Z " fill="#FCFCFE" transform="translate(44.35528564453125,167.6486358642578)"/>
<path d="M0 0 C6.54471639 3.94060818 11.15502332 9.75820796 13.5 17.1484375 C15.17951407 26.45036159 13.00853545 33.22797918 7.85546875 41.1171875 C3.11307655 46.7628925 -3.5458034 50.39674258 -10.8125 51.53515625 C-18.0212687 51.91135433 -23.08799359 49.88325273 -29.14453125 46.1171875 C-30.05203125 45.5809375 -30.95953125 45.0446875 -31.89453125 44.4921875 C-37.54287856 38.53004312 -40.52604779 32.30724137 -40.83203125 24.0546875 C-40.40243872 15.32918598 -37.65297105 9.14087641 -31.26953125 3.1796875 C-22.02869324 -4.08954315 -10.58582554 -5.59178398 0 0 Z " fill="#5047E5" transform="translate(140.14453125,106.8828125)"/>
</svg>
